<svg width="100" height="100" viewBox="0 0 100 100" fill="none" xmlns="http://www.w3.org/2000/svg">
<g clip-path="url(#clip0_306_18)">
<path d="M35.8352 42.3125H28.3693C28.233 41.3466 27.9545 40.4886 27.5341 39.7386C27.1136 38.9773 26.5739 38.3295 25.9148 37.7955C25.2557 37.2614 24.4943 36.8523 23.6307 36.5682C22.7784 36.2841 21.8523 36.142 20.8523 36.142C19.0455 36.142 17.4716 36.5909 16.1307 37.4886C14.7898 38.375 13.75 39.6705 13.0114 41.375C12.2727 43.0682 11.9034 45.125 11.9034 47.5455C11.9034 50.0341 12.2727 52.125 13.0114 53.8182C13.7614 55.5114 14.8068 56.7898 16.1477 57.6534C17.4886 58.517 19.0398 58.9489 20.8011 58.9489C21.7898 58.9489 22.7045 58.8182 23.5455 58.5568C24.3977 58.2955 25.1534 57.9148 25.8125 57.4148C26.4716 56.9034 27.017 56.2841 27.4489 55.5568C27.892 54.8295 28.1989 54 28.3693 53.0682L35.8352 53.1023C35.642 54.7045 35.1591 56.25 34.3864 57.7386C33.625 59.2159 32.5966 60.5398 31.3011 61.7102C30.017 62.8693 28.483 63.7898 26.6989 64.4716C24.9261 65.142 22.9205 65.4773 20.6818 65.4773C17.5682 65.4773 14.7841 64.7727 12.3295 63.3636C9.88636 61.9545 7.95455 59.9148 6.53409 57.2443C5.125 54.5739 4.42045 51.3409 4.42045 47.5455C4.42045 43.7386 5.13636 40.5 6.56818 37.8295C8 35.1591 9.94318 33.125 12.3977 31.7273C14.8523 30.3182 17.6136 29.6136 20.6818 29.6136C22.7045 29.6136 24.5795 29.8977 26.3068 30.4659C28.0455 31.0341 29.5852 31.8636 30.9261 32.9545C32.267 34.0341 33.358 35.358 34.1989 36.9261C35.0511 38.4943 35.5966 40.2898 35.8352 42.3125ZM48.4574 65.4943C46.7869 65.4943 45.2983 65.2045 43.9915 64.625C42.6847 64.0341 41.6506 63.1648 40.8892 62.017C40.1392 60.858 39.7642 59.4148 39.7642 57.6875C39.7642 56.233 40.0313 55.0114 40.5653 54.0227C41.0994 53.0341 41.8267 52.2386 42.7472 51.6364C43.6676 51.0341 44.7131 50.5795 45.8835 50.2727C47.0653 49.9659 48.304 49.75 49.5994 49.625C51.1222 49.4659 52.3494 49.3182 53.2812 49.1818C54.2131 49.0341 54.8892 48.8182 55.3097 48.5341C55.7301 48.25 55.9403 47.8295 55.9403 47.2727V47.1705C55.9403 46.0909 55.5994 45.2557 54.9176 44.6648C54.2472 44.0739 53.2926 43.7784 52.054 43.7784C50.7472 43.7784 49.7074 44.0682 48.9347 44.6477C48.1619 45.2159 47.6506 45.9318 47.4006 46.7955L40.6847 46.25C41.0256 44.6591 41.696 43.2841 42.696 42.125C43.696 40.9545 44.9858 40.0568 46.5653 39.4318C48.1563 38.7955 49.9972 38.4773 52.0881 38.4773C53.5426 38.4773 54.9347 38.6477 56.2642 38.9886C57.6051 39.3295 58.7926 39.858 59.8267 40.5739C60.8722 41.2898 61.696 42.2102 62.2983 43.3352C62.9006 44.4489 63.2017 45.7841 63.2017 47.3409V65H56.3153V61.3693H56.1108C55.6903 62.1875 55.1278 62.9091 54.4233 63.5341C53.7188 64.1477 52.8722 64.6307 51.8835 64.983C50.8949 65.3239 49.7528 65.4943 48.4574 65.4943ZM50.5369 60.483C51.6051 60.483 52.5483 60.2727 53.3665 59.8523C54.1847 59.4205 54.8267 58.8409 55.2926 58.1136C55.7585 57.3864 55.9915 56.5625 55.9915 55.642V52.8636C55.7642 53.0114 55.4517 53.1477 55.054 53.2727C54.6676 53.3864 54.2301 53.4943 53.7415 53.5966C53.2528 53.6875 52.7642 53.7727 52.2756 53.8523C51.7869 53.9205 51.3438 53.983 50.946 54.0398C50.0938 54.1648 49.3494 54.3636 48.7131 54.6364C48.0767 54.9091 47.5824 55.2784 47.2301 55.7443C46.8778 56.1989 46.7017 56.767 46.7017 57.4489C46.7017 58.4375 47.0597 59.1932 47.7756 59.7159C48.5028 60.2273 49.4233 60.483 50.5369 60.483ZM68.8352 74.8182V38.8182H75.9943V43.2159H76.3182C76.6364 42.5114 77.0966 41.7955 77.6989 41.0682C78.3125 40.3295 79.108 39.7159 80.0852 39.2273C81.0739 38.7273 82.3011 38.4773 83.767 38.4773C85.6761 38.4773 87.4375 38.9773 89.0511 39.9773C90.6648 40.9659 91.9545 42.4602 92.9205 44.4602C93.8864 46.4489 94.3693 48.9432 94.3693 51.9432C94.3693 54.8636 93.8977 57.3295 92.9545 59.3409C92.0227 61.3409 90.75 62.858 89.1364 63.892C87.5341 64.9148 85.7386 65.4261 83.75 65.4261C82.3409 65.4261 81.142 65.1932 80.1534 64.7273C79.1761 64.2614 78.375 63.6761 77.75 62.9716C77.125 62.2557 76.6477 61.5341 76.3182 60.8068H76.0966V74.8182H68.8352ZM75.9432 51.9091C75.9432 53.4659 76.1591 54.8239 76.5909 55.983C77.0227 57.142 77.6477 58.0455 78.4659 58.6932C79.2841 59.3295 80.2784 59.6477 81.4489 59.6477C82.6307 59.6477 83.6307 59.3239 84.4489 58.6761C85.267 58.017 85.8864 57.108 86.3068 55.9489C86.7386 54.7784 86.9545 53.4318 86.9545 51.9091C86.9545 50.3977 86.7443 49.0682 86.3239 47.9205C85.9034 46.7727 85.2841 45.875 84.4659 45.2273C83.6477 44.5795 82.642 44.2557 81.4489 44.2557C80.267 44.2557 79.267 44.5682 78.4489 45.1932C77.642 45.8182 77.0227 46.7045 76.5909 47.8523C76.1591 49 75.9432 50.3523 75.9432 51.9091Z" fill="#FF0000"/>
<path d="M37.5 97.5L27.5 97.5L27.5 87.5L37.5 87.5L37.5 97.5Z" fill="#16BBA7" stroke="black"/>
<path d="M37.5 12.5L27.5 12.5L27.5 2.5L37.5 2.5L37.5 12.5Z" fill="#16BBA7" stroke="black"/>
<mask id="mask0_306_18" style="mask-type:alpha" maskUnits="userSpaceOnUse" x="37" y="4" width="45" height="91">
<mask id="mask1_306_18" style="mask-type:alpha" maskUnits="userSpaceOnUse" x="-9" y="4" width="91" height="91">
<circle cx="36.5" cy="49.5" r="43" transform="rotate(-180 36.5 49.5)" stroke="black" stroke-width="5"/>
</mask>
<g mask="url(#mask1_306_18)">
<rect x="90" y="99" width="53" height="97" transform="rotate(-180 90 99)" fill="black"/>
</g>
</mask>
<g mask="url(#mask0_306_18)">
<path d="M96.5 35.5H65L11.5 23.5L24 -9L119 5L109.5 99.5L-13.5 95.5L62 78.5H84L96.5 35.5Z" fill="black"/>
</g>
</g>
<defs>
<clipPath id="clip0_306_18">
<rect width="100" height="100" fill="white"/>
</clipPath>
</defs>
</svg>
