<svg width="100" height="100" viewBox="0 0 100 100" fill="none" xmlns="http://www.w3.org/2000/svg">
<circle cx="50" cy="50" r="45.5" stroke="black" stroke-width="5"/>
<path d="M67.0646 46.4766H58.6655C58.5121 45.3899 58.1989 44.4247 57.7259 43.581C57.2528 42.7244 56.6456 41.9957 55.9041 41.3949C55.1626 40.794 54.3061 40.3338 53.3345 40.0142C52.3757 39.6946 51.3338 39.5348 50.2088 39.5348C48.1761 39.5348 46.4055 40.0398 44.897 41.0497C43.3885 42.0469 42.2188 43.5043 41.3878 45.4219C40.5568 47.3267 40.1413 49.6406 40.1413 52.3636C40.1413 55.1634 40.5568 57.5156 41.3878 59.4205C42.2315 61.3253 43.4077 62.7635 44.9162 63.7351C46.4247 64.7067 48.1697 65.1925 50.1513 65.1925C51.2635 65.1925 52.2926 65.0455 53.2386 64.7514C54.1974 64.4574 55.0476 64.0291 55.7891 63.4666C56.5305 62.8913 57.1442 62.1946 57.63 61.3764C58.1286 60.5582 58.4737 59.625 58.6655 58.5767L67.0646 58.6151C66.8473 60.4176 66.304 62.1562 65.4347 63.831C64.5781 65.4929 63.4212 66.9822 61.9638 68.299C60.5192 69.603 58.7933 70.6385 56.7862 71.4055C54.7919 72.1598 52.5355 72.5369 50.017 72.5369C46.5142 72.5369 43.3821 71.7443 40.6207 70.1591C37.8722 68.5739 35.6989 66.2791 34.1009 63.2749C32.5156 60.2706 31.723 56.6335 31.723 52.3636C31.723 48.081 32.5284 44.4375 34.1392 41.4332C35.75 38.429 37.9361 36.1406 40.6974 34.5682C43.4588 32.983 46.5653 32.1903 50.017 32.1903C52.2926 32.1903 54.402 32.5099 56.3452 33.1491C58.3011 33.7884 60.0334 34.7216 61.5419 35.9489C63.0504 37.1634 64.2777 38.6527 65.2237 40.4169C66.1825 42.1811 66.7962 44.201 67.0646 46.4766Z" fill="#FF0000"/>
<mask id="mask0_303_32" style="mask-type:alpha" maskUnits="userSpaceOnUse" x="5" y="6" width="92" height="92">
<circle cx="51" cy="52" r="34.5" stroke="black" stroke-width="23"/>
</mask>
<g mask="url(#mask0_303_32)">
<line x1="81.9612" y1="19.4142" x2="15.4142" y2="85.9612" stroke="black" stroke-width="4"/>
</g>
<path d="M78.5 13.5H88.5V23.5H78.5V13.5Z" fill="#16BBA7" stroke="black"/>
<path d="M13.5 78.5H23.5V88.5H13.5V78.5Z" fill="#16BBA7" stroke="black"/>
</svg>
