<svg width="100" height="100" viewBox="0 0 100 100" fill="none" xmlns="http://www.w3.org/2000/svg">
<path d="M39.8352 45.3124H32.3693C32.233 44.3465 31.9546 43.4885 31.5341 42.7385C31.1137 41.9772 30.5739 41.3294 29.9148 40.7953C29.2557 40.2613 28.4943 39.8522 27.6307 39.5681C26.7784 39.284 25.8523 39.1419 24.8523 39.1419C23.0455 39.1419 21.4716 39.5908 20.1307 40.4885C18.7898 41.3749 17.75 42.6703 17.0114 44.3749C16.2727 46.0681 15.9034 48.1249 15.9034 50.5453C15.9034 53.034 16.2727 55.1249 17.0114 56.8181C17.7614 58.5113 18.8068 59.7897 20.1477 60.6533C21.4887 61.5169 23.0398 61.9488 24.8012 61.9488C25.7898 61.9488 26.7046 61.8181 27.5455 61.5567C28.3977 61.2953 29.1534 60.9147 29.8125 60.4147C30.4716 59.9033 31.0171 59.284 31.4489 58.5567C31.8921 57.8294 32.1989 56.9999 32.3693 56.0681L39.8352 56.1022C39.6421 57.7044 39.1591 59.2499 38.3864 60.7385C37.625 62.2158 36.5966 63.5397 35.3012 64.7101C34.0171 65.8692 32.483 66.7897 30.6989 67.4715C28.9262 68.1419 26.9205 68.4772 24.6818 68.4772C21.5682 68.4772 18.7841 67.7726 16.3296 66.3635C13.8864 64.9544 11.9546 62.9147 10.5341 60.2442C9.12502 57.5738 8.42047 54.3408 8.42047 50.5453C8.42047 46.7385 9.13638 43.4999 10.5682 40.8294C12 38.159 13.9432 36.1249 16.3977 34.7272C18.8523 33.3181 21.6137 32.6135 24.6818 32.6135C26.7046 32.6135 28.5796 32.8976 30.3068 33.4658C32.0455 34.034 33.5852 34.8635 34.9262 35.9544C36.2671 37.034 37.358 38.3578 38.1989 39.926C39.0512 41.4942 39.5966 43.2897 39.8352 45.3124Z" fill="#FF0000"/>
<path d="M43.5767 65.6988V39.5169H50.6165V44.0851H50.8892C51.3665 42.4601 52.1676 41.2328 53.2926 40.4033C54.4176 39.5624 55.7131 39.1419 57.179 39.1419C57.5426 39.1419 57.9347 39.1647 58.3551 39.2101C58.7756 39.2556 59.1449 39.3181 59.4631 39.3976V45.8408C59.1222 45.7385 58.6506 45.6476 58.0483 45.5681C57.446 45.4885 56.8949 45.4488 56.3949 45.4488C55.3267 45.4488 54.3722 45.6817 53.5313 46.1476C52.7017 46.6022 52.0426 47.2385 51.554 48.0567C51.0767 48.8749 50.8381 49.8181 50.8381 50.8863V65.6988H43.5767Z" fill="#FF0000"/>
<path d="M88.3551 39.5169L79.2017 65.6988H71.0199L61.8665 39.5169H69.537L74.9745 58.2499H75.2472L80.6676 39.5169H88.3551Z" fill="#FF0000"/>
<mask id="mask0_306_2" style="mask-type:alpha" maskUnits="userSpaceOnUse" x="9" y="4" width="85" height="92">
<path d="M10 8.00012C128.5 -7.49981 -33.5 105 93.5 92.5" stroke="black" stroke-width="5"/>
</mask>
<g mask="url(#mask0_306_2)">
<rect x="11" y="-4" width="55.0283" height="40.6509" rx="5" transform="rotate(0.565669 11 -4)" fill="black"/>
<rect x="28.4013" y="67" width="75.1404" height="40.6509" rx="5" transform="rotate(0.565669 28.4013 67)" fill="black"/>
</g>
<path d="M2.5 2.5H12.5V12.5H2.5V2.5Z" fill="#16BBA7" stroke="black"/>
<path d="M87.5 87.5H97.5V97.5H87.5V87.5Z" fill="#16BBA7" stroke="black"/>
</svg>
