<svg width="100" height="100" viewBox="0 0 100 100" fill="none" xmlns="http://www.w3.org/2000/svg">
<path d="M54.5 55.5L44.5 55.5L44.5 45.5L54.5 45.5L54.5 55.5Z" fill="#0085FF" stroke="black"/>
<circle cx="49.5" cy="50.5" r="15.5" stroke="#0085FF" stroke-width="4"/>
<mask id="mask0_306_48" style="mask-type:alpha" maskUnits="userSpaceOnUse" x="31" y="1" width="37" height="51">
<path d="M51.2678 2.23223C50.2915 1.25592 48.7085 1.25592 47.7322 2.23223L31.8223 18.1421C30.846 19.1184 30.846 20.7014 31.8223 21.6777C32.7986 22.654 34.3816 22.654 35.3579 21.6777L49.5 7.53553L63.6421 21.6777C64.6184 22.654 66.2014 22.654 67.1777 21.6777C68.154 20.7014 68.154 19.1184 67.1777 18.1421L51.2678 2.23223ZM52 52V4H47V52H52Z" fill="black"/>
</mask>
<g mask="url(#mask0_306_48)">
<rect x="24" y="-13" width="51" height="55" fill="black"/>
</g>
<mask id="mask1_306_48" style="mask-type:alpha" maskUnits="userSpaceOnUse" x="31" y="48" width="37" height="51">
<path d="M47.7322 97.7678C48.7085 98.7441 50.2915 98.7441 51.2678 97.7678L67.1777 81.8579C68.154 80.8816 68.154 79.2986 67.1777 78.3223C66.2014 77.346 64.6184 77.346 63.6421 78.3223L49.5 92.4645L35.3579 78.3223C34.3816 77.346 32.7986 77.346 31.8223 78.3223C30.846 79.2986 30.846 80.8816 31.8223 81.8579L47.7322 97.7678ZM47 48L47 96L52 96L52 48L47 48Z" fill="black"/>
</mask>
<g mask="url(#mask1_306_48)">
<rect x="23" y="59" width="51" height="55" fill="black"/>
</g>
<mask id="mask2_306_48" style="mask-type:alpha" maskUnits="userSpaceOnUse" x="48" y="32" width="51" height="37">
<path d="M97.7678 52.2678C98.7441 51.2915 98.7441 49.7085 97.7678 48.7322L81.8579 32.8223C80.8816 31.846 79.2986 31.846 78.3223 32.8223C77.346 33.7986 77.346 35.3816 78.3223 36.3579L92.4645 50.5L78.3223 64.6421C77.346 65.6184 77.346 67.2014 78.3223 68.1777C79.2986 69.154 80.8816 69.154 81.8579 68.1777L97.7678 52.2678ZM48 53L96 53L96 48L48 48L48 53Z" fill="black"/>
</mask>
<g mask="url(#mask2_306_48)">
<rect x="58" y="27.5" width="51" height="55" fill="black"/>
</g>
<mask id="mask3_306_48" style="mask-type:alpha" maskUnits="userSpaceOnUse" x="1" y="32" width="51" height="37">
<path d="M2.23223 48.7322C1.25592 49.7085 1.25592 51.2915 2.23223 52.2678L18.1421 68.1777C19.1184 69.154 20.7014 69.154 21.6777 68.1777C22.654 67.2014 22.654 65.6184 21.6777 64.6421L7.53553 50.5L21.6777 36.3579C22.654 35.3816 22.654 33.7986 21.6777 32.8223C20.7014 31.846 19.1184 31.846 18.1421 32.8223L2.23223 48.7322ZM52 48L4 48L4 53L52 53L52 48Z" fill="black"/>
</mask>
<g mask="url(#mask3_306_48)">
<rect x="-10" y="27.5" width="51" height="55" fill="black"/>
</g>
</svg>
