<svg width="100" height="100" viewBox="0 0 100 100" fill="none" xmlns="http://www.w3.org/2000/svg">
<g clip-path="url(#clip0_303_167)">
<path d="M4.79832 38.3131L50 5.47214L95.2017 38.3131L77.9362 91.4509H22.0638L4.79832 38.3131Z" stroke="black" stroke-width="4"/>
<path d="M45 2.5H55V12.5H45V2.5Z" fill="#16BBA7" stroke="black"/>
<path d="M16.5 87.5H26.5V97.5H16.5V87.5Z" fill="#16BBA7" stroke="black"/>
<path d="M73.5 88.5H83.5V98.5H73.5V88.5Z" fill="#16BBA7" stroke="black"/>
<path d="M2.5 33.5H12.5V43.5H2.5V33.5Z" fill="#16BBA7" stroke="black"/>
<path d="M87.5 33.5H97.5V43.5H87.5V33.5Z" fill="#16BBA7" stroke="black"/>
<path d="M23.0341 69V34.0909H36.8068C39.4545 34.0909 41.7102 34.5966 43.5739 35.608C45.4375 36.608 46.858 38 47.8352 39.7841C48.8239 41.5568 49.3182 43.6023 49.3182 45.9205C49.3182 48.2386 48.8182 50.2841 47.8182 52.0568C46.8182 53.8295 45.3693 55.2102 43.4716 56.1989C41.5852 57.1875 39.3011 57.6818 36.6193 57.6818H27.8409V51.767H35.4261C36.8466 51.767 38.017 51.5227 38.9375 51.0341C39.8693 50.5341 40.5625 49.8466 41.017 48.9716C41.483 48.0852 41.7159 47.0682 41.7159 45.9205C41.7159 44.7614 41.483 43.75 41.017 42.8864C40.5625 42.0114 39.8693 41.3352 38.9375 40.858C38.0057 40.3693 36.8239 40.125 35.392 40.125H30.4148V69H23.0341ZM65.3494 79.3636C62.9972 79.3636 60.9801 79.0398 59.2983 78.392C57.6278 77.7557 56.2983 76.8864 55.3097 75.7841C54.321 74.6818 53.679 73.4432 53.3835 72.0682L60.0994 71.1648C60.304 71.6875 60.6278 72.1761 61.071 72.6307C61.5142 73.0852 62.0994 73.4489 62.8267 73.7216C63.5653 74.0057 64.4631 74.1477 65.5199 74.1477C67.0994 74.1477 68.4006 73.7614 69.4233 72.9886C70.4574 72.2273 70.9744 70.9489 70.9744 69.1534V64.3636H70.6676C70.3494 65.0909 69.8722 65.7784 69.2358 66.4261C68.5994 67.0739 67.7812 67.6023 66.7812 68.0114C65.7812 68.4205 64.5881 68.625 63.2017 68.625C61.2358 68.625 59.446 68.1705 57.8324 67.2614C56.2301 66.3409 54.9517 64.9375 53.9972 63.0511C53.054 61.1534 52.5824 58.7557 52.5824 55.858C52.5824 52.892 53.0653 50.4148 54.0312 48.4261C54.9972 46.4375 56.2813 44.9489 57.8835 43.9602C59.4972 42.9716 61.2642 42.4773 63.1847 42.4773C64.6506 42.4773 65.8778 42.7273 66.8665 43.2273C67.8551 43.7159 68.6506 44.3295 69.2528 45.0682C69.8665 45.7955 70.3381 46.5114 70.6676 47.2159H70.9403V42.8182H78.1506V69.2557C78.1506 71.483 77.6051 73.3466 76.5142 74.8466C75.4233 76.3466 73.9119 77.4716 71.9801 78.2216C70.0597 78.983 67.8494 79.3636 65.3494 79.3636ZM65.5028 63.1705C66.6733 63.1705 67.6619 62.8807 68.4688 62.3011C69.2869 61.7102 69.9119 60.8693 70.3438 59.7784C70.7869 58.6761 71.0085 57.358 71.0085 55.8239C71.0085 54.2898 70.7926 52.9602 70.3608 51.8352C69.929 50.6989 69.304 49.8182 68.4858 49.1932C67.6676 48.5682 66.6733 48.2557 65.5028 48.2557C64.3097 48.2557 63.304 48.5795 62.4858 49.2273C61.6676 49.8636 61.0483 50.75 60.6278 51.8864C60.2074 53.0227 59.9972 54.3352 59.9972 55.8239C59.9972 57.3352 60.2074 58.642 60.6278 59.7443C61.0597 60.8352 61.679 61.6818 62.4858 62.2841C63.304 62.875 64.3097 63.1705 65.5028 63.1705Z" fill="#FF0000"/>
</g>
<defs>
<clipPath id="clip0_303_167">
<rect width="100" height="100" fill="white"/>
</clipPath>
</defs>
</svg>
