<svg width="100" height="100" viewBox="0 0 100 100" fill="none" xmlns="http://www.w3.org/2000/svg">
<line x1="7.5" y1="6.5" x2="92.5" y2="6.50001" stroke="black" stroke-width="5" stroke-linecap="round"/>
<line x1="92.5" y1="93.5" x2="7.5" y2="93.5" stroke="black" stroke-width="5" stroke-linecap="round"/>
<line x1="7.5" y1="7.5" x2="7.5" y2="92.5" stroke="black" stroke-width="5" stroke-linecap="round"/>
<line x1="92.5" y1="92.5" x2="92.5" y2="7.5" stroke="black" stroke-width="5" stroke-linecap="round"/>
<path d="M2.5 2.5H12.5V12.5H2.5V2.5Z" fill="#16BBA7" stroke="black"/>
<path d="M87.5 2.5H97.5V12.5H87.5V2.5Z" fill="#16BBA7" stroke="black"/>
<path d="M87.5 87.5H97.5V97.5H87.5V87.5Z" fill="#16BBA7" stroke="black"/>
<path d="M2.5 87.5H12.5V97.5H2.5V87.5Z" fill="#16BBA7" stroke="black"/>
<path d="M19.4134 72V32.7273H34.9077C37.8736 32.7273 40.4048 33.2578 42.5014 34.3189C44.6108 35.3672 46.2152 36.8565 47.3146 38.7869C48.4268 40.7045 48.983 42.9609 48.983 45.5561C48.983 48.1641 48.4205 50.4077 47.2955 52.2869C46.1705 54.1534 44.5405 55.5852 42.4055 56.5824C40.2834 57.5795 37.7138 58.0781 34.6967 58.0781H24.3224V51.4048H33.3544C34.9396 51.4048 36.2564 51.1875 37.3047 50.7528C38.353 50.3182 39.1328 49.6662 39.6442 48.7969C40.1683 47.9276 40.4304 46.8473 40.4304 45.5561C40.4304 44.2521 40.1683 43.1527 39.6442 42.2578C39.1328 41.3629 38.3466 40.6854 37.2855 40.2251C36.2372 39.7521 34.9141 39.5156 33.3161 39.5156H27.7166V72H19.4134ZM40.6222 54.1278L50.3828 72H41.2166L31.6669 54.1278H40.6222ZM67.6461 72.5753C64.6163 72.5753 62.0083 71.9616 59.8223 70.7344C57.649 69.4943 55.9743 67.7429 54.7981 65.4801C53.622 63.2045 53.0339 60.5135 53.0339 57.407C53.0339 54.3771 53.622 51.718 54.7981 49.4297C55.9743 47.1413 57.6298 45.358 59.7647 44.0795C61.9125 42.8011 64.4309 42.1619 67.3201 42.1619C69.2633 42.1619 71.0723 42.4751 72.747 43.1016C74.4345 43.7152 75.9047 44.642 77.1575 45.8821C78.4231 47.1222 79.4075 48.6818 80.1106 50.5611C80.8137 52.4276 81.1653 54.6136 81.1653 57.1193V59.3629H56.2939V54.3004H73.4757C73.4757 53.1243 73.22 52.0824 72.7086 51.1747C72.1973 50.267 71.4877 49.5575 70.5801 49.0462C69.6852 48.522 68.6433 48.2599 67.4544 48.2599C66.2143 48.2599 65.1149 48.5476 64.1561 49.1229C63.2101 49.6854 62.4686 50.446 61.9316 51.4048C61.3947 52.3509 61.1199 53.4055 61.1071 54.5689V59.3821C61.1071 60.8395 61.3755 62.0987 61.9125 63.1598C62.4622 64.2209 63.2356 65.0391 64.2328 65.6143C65.2299 66.1896 66.4125 66.4773 67.7804 66.4773C68.688 66.4773 69.519 66.3494 70.2733 66.0938C71.0275 65.8381 71.6731 65.4545 72.21 64.9432C72.747 64.4318 73.1561 63.8054 73.4373 63.0639L80.9927 63.5625C80.6092 65.3778 79.823 66.9631 78.6341 68.3182C77.4579 69.6605 75.9366 70.7088 74.0701 71.4631C72.2164 72.2045 70.0751 72.5753 67.6461 72.5753Z" fill="#FF0000"/>
</svg>
