<svg width="100" height="100" viewBox="0 0 100 100" fill="none" xmlns="http://www.w3.org/2000/svg">
<path d="M91.1486 29.1716C92.7107 30.7337 92.7107 33.2663 91.1486 34.8284L65.6928 60.2843C64.1307 61.8464 61.598 61.8464 60.0359 60.2843C58.4739 58.7222 58.4738 56.1895 60.0359 54.6274L82.6633 32L60.0359 9.37261C58.4738 7.81052 58.4738 5.27786 60.0359 3.71576C61.598 2.15366 64.1306 2.15366 65.6927 3.71575L91.1486 29.1716ZM64.3202 82.0003L68.3202 82.0003L68.3202 90.0003L64.3202 90.0003L64.3202 82.0003ZM88.3202 36C60.0662 36 40.4279 39.3553 27.9301 44.1702C15.1543 49.0921 11.1373 54.9432 10.9409 59.1852C10.7412 63.498 14.3297 69.1452 23.8948 73.9951C33.1838 78.7051 47.0279 82.0003 64.3202 82.0003L64.3202 90.0003C46.1125 90.0003 30.9567 86.5454 20.2769 81.1303C9.8732 75.8552 2.52413 68.0024 2.94946 58.8152C3.37807 49.5571 11.5485 41.9081 25.054 36.705C38.8374 31.3949 59.5742 28 88.3202 28L88.3202 36Z" fill="black"/>
</svg>
