<svg width="100" height="100" viewBox="0 0 100 100" fill="none" xmlns="http://www.w3.org/2000/svg">
<g clip-path="url(#clip0_308_2)">
<path fill-rule="evenodd" clip-rule="evenodd" d="M2.43569 2.43565L96.843 38.2453C97.9744 38.6744 98.5436 39.9394 98.1145 41.0708C97.6854 42.2022 96.4203 42.7714 95.289 42.3423L9.98616 9.98613L42.3423 95.2889C42.7715 96.4203 42.2022 97.6853 41.0708 98.1145C39.9395 98.5436 38.6744 97.9743 38.2453 96.843L2.43569 2.43565Z" fill="black"/>
<path fill-rule="evenodd" clip-rule="evenodd" d="M42.4584 95.2572C42.473 95.6171 42.4839 95.8859 42.4848 96.0537C42.4916 97.2637 41.5163 98.2501 40.3063 98.2569C39.0963 98.2637 38.1098 97.2883 38.103 96.0783C38.1023 95.9533 38.0926 95.7335 38.079 95.4273C37.9285 92.0269 37.3059 77.9687 43.3363 64.664C46.6492 57.3547 51.9911 50.2043 60.5349 45.1355C69.0746 40.0692 80.6319 37.19 96.1951 38.1068C97.403 38.178 98.3245 39.2149 98.2533 40.4228C98.1822 41.6308 97.1453 42.5523 95.9374 42.4811C81.0456 41.6038 70.4016 44.377 62.7707 48.9041C55.144 53.4287 50.3461 59.8127 47.3273 66.473C41.7862 78.6983 42.3109 91.6238 42.4584 95.2572Z" fill="black"/>
<path d="M77.5 73L67.5 73L67.5 63L77.5 63L77.5 73Z" fill="#0085FF" stroke="black"/>
</g>
<defs>
<clipPath id="clip0_308_2">
<rect width="100" height="100" fill="white"/>
</clipPath>
</defs>
</svg>
