<svg width="100" height="100" viewBox="0 0 100 100" fill="none" xmlns="http://www.w3.org/2000/svg">
<path d="M2.17155 29.1716C0.609454 30.7337 0.609451 33.2663 2.17155 34.8284L27.6274 60.2843C29.1895 61.8464 31.7221 61.8464 33.2842 60.2843C34.8463 58.7222 34.8463 56.1895 33.2842 54.6274L10.6568 32L33.2843 9.37261C34.8464 7.81052 34.8464 5.27786 33.2843 3.71576C31.7222 2.15366 29.1895 2.15366 27.6274 3.71575L2.17155 29.1716ZM28.9999 82.0003L24.9999 82.0003L24.9999 90.0003L28.9999 90.0003L28.9999 82.0003ZM4.99997 36C33.254 36 52.8922 39.3553 65.3901 44.1702C78.1658 49.0921 82.1829 54.9432 82.3793 59.1852C82.5789 63.498 78.9905 69.1452 69.4254 73.9951C60.1364 78.7051 46.2922 82.0003 28.9999 82.0003L28.9999 90.0003C47.2077 90.0003 62.3635 86.5454 73.0433 81.1303C83.447 75.8552 90.796 68.0024 90.3707 58.8152C89.9421 49.5571 81.7717 41.9081 68.2661 36.705C54.4828 31.3949 33.746 28 4.99998 28L4.99997 36Z" fill="black"/>
</svg>
